<svg xmlns="http://www.w3.org/2000/svg" viewBox="0 0 259.56 72.82"><defs><style>.cls-1,.cls-3{fill:black;}.cls-2{fill:#e82e89;}.cls-3{font-size:15px;font-family:Avenir-MediumOblique, Avenir;font-weight:500;font-style:oblique;letter-spacing:0.35em;}</style></defs><title>logo-keycash-backoffice</title><g id="Camada_2" data-name="Camada 2"><g id="Modo_de_isolamento" data-name="Modo de isolamento"><path class="cls-1" d="M0,0H10.3V31.72L21.7,18.54H34.33l-13.25,15L34.67,51.91h-13L10.44,35H10.3V51.91H0Z"/><path class="cls-1" d="M68.39,46.14A16.42,16.42,0,0,1,62.14,51a18.66,18.66,0,0,1-7.83,1.72,21.09,21.09,0,0,1-7.24-1.23A17.57,17.57,0,0,1,41.16,48a16.73,16.73,0,0,1-3.95-5.53,17.48,17.48,0,0,1-1.44-7.21A17.55,17.55,0,0,1,37.21,28a16.68,16.68,0,0,1,3.95-5.52A17.25,17.25,0,0,1,47.07,19a21.1,21.1,0,0,1,7.24-1.24A16.57,16.57,0,0,1,60.8,19a13.43,13.43,0,0,1,4.94,3.54A16.19,16.19,0,0,1,68.87,28,22.41,22.41,0,0,1,70,35.22v3.23H46.07a8.12,8.12,0,0,0,2.68,4.7,7.56,7.56,0,0,0,5.08,1.75,7.71,7.71,0,0,0,4.29-1.13,11.45,11.45,0,0,0,3.06-2.92ZM59.67,31.45A6,6,0,0,0,58,27a6.12,6.12,0,0,0-4.6-1.85,7.64,7.64,0,0,0-3,.55,7.39,7.39,0,0,0-2.23,1.41,6.18,6.18,0,0,0-1.45,2,6.66,6.66,0,0,0-.58,2.37Z"/><path class="cls-1" d="M95.44,57.33q-1,2.69-2,4.74A11.68,11.68,0,0,1,91,65.54a9.62,9.62,0,0,1-3.74,2.12,19.89,19.89,0,0,1-6,.73,24.33,24.33,0,0,1-7.69-1.24L75,58.7a11.68,11.68,0,0,0,4.8,1,8.88,8.88,0,0,0,2.82-.37,4.8,4.8,0,0,0,1.82-1.1,6.17,6.17,0,0,0,1.2-1.75c.32-.69.66-1.49,1-2.41l.75-1.92L72.78,18.54H83.9l8.58,22h.14l7.35-22h10.57Z"/><path class="cls-1" d="M135.6,29.32a5.77,5.77,0,0,0-2.12-1.82,6.29,6.29,0,0,0-3-.72,7.87,7.87,0,0,0-6.07,2.33,8.62,8.62,0,0,0-2.17,6.11,8.59,8.59,0,0,0,2.17,6.11,7.84,7.84,0,0,0,6.07,2.34,5.52,5.52,0,0,0,3-.76,9,9,0,0,0,2.12-1.78l6.8,7.14a13.18,13.18,0,0,1-5.66,3.47,21.46,21.46,0,0,1-6.22,1,21.09,21.09,0,0,1-7.24-1.23A17.57,17.57,0,0,1,117.37,48a16.56,16.56,0,0,1-3.94-5.53A17.49,17.49,0,0,1,112,35.22,17.55,17.55,0,0,1,113.43,28a16.52,16.52,0,0,1,3.94-5.52A17.25,17.25,0,0,1,123.28,19a21.1,21.1,0,0,1,7.24-1.24,21.48,21.48,0,0,1,6.22,1,13.08,13.08,0,0,1,5.66,3.47Z"/><path class="cls-1" d="M209.08,28.36a7.28,7.28,0,0,0-6-2.82,5.7,5.7,0,0,0-2.55.62,2.18,2.18,0,0,0-1.23,2.13,1.91,1.91,0,0,0,1.27,1.82,16.89,16.89,0,0,0,3.23,1l4.18,1a15.62,15.62,0,0,1,4.19,1.61,9.43,9.43,0,0,1,3.23,3,8.89,8.89,0,0,1,1.27,5,9.34,9.34,0,0,1-1.41,5.32,10.92,10.92,0,0,1-3.6,3.36,15.69,15.69,0,0,1-4.95,1.79,29.57,29.57,0,0,1-5.42.51,26.39,26.39,0,0,1-7.07-1,13.26,13.26,0,0,1-6-3.54l6.24-6.94a10.38,10.38,0,0,0,3.2,2.72,8.68,8.68,0,0,0,4.08.92,9.64,9.64,0,0,0,3.23-.51,1.89,1.89,0,0,0,1.44-1.89,2.1,2.1,0,0,0-1.27-2,13.8,13.8,0,0,0-3.23-1.09l-4.18-1a16.93,16.93,0,0,1-4.19-1.54A8.78,8.78,0,0,1,190.3,34,8.89,8.89,0,0,1,189,29a10.21,10.21,0,0,1,1.2-5.08,10.73,10.73,0,0,1,3.16-3.5,13.58,13.58,0,0,1,4.5-2,20.38,20.38,0,0,1,5.15-.66,24.28,24.28,0,0,1,6.66,1,12.36,12.36,0,0,1,5.7,3.43Z"/><path class="cls-1" d="M233.28,0V23.07h.14a6.2,6.2,0,0,1,1.17-1.92,9.31,9.31,0,0,1,2-1.72,11.26,11.26,0,0,1,2.75-1.24,12,12,0,0,1,3.43-.48,14.23,14.23,0,0,1,6.32,1.21,9.11,9.11,0,0,1,3.74,3.33,13.52,13.52,0,0,1,1.82,5,38.05,38.05,0,0,1,.48,6.25v18.4h-10.3V35.57c0-1,0-2-.1-3a9.57,9.57,0,0,0-.62-2.85,5,5,0,0,0-1.58-2.13,4.91,4.91,0,0,0-3.06-.82,6.35,6.35,0,0,0-3.22.72,4.84,4.84,0,0,0-1.89,1.92,7.84,7.84,0,0,0-.86,2.71,23,23,0,0,0-.21,3.16V51.91H223V0Z"/><g id="arrow-30"><polygon class="cls-2" points="146.42 28.42 146.42 41.93 164.48 23.84 182.54 41.93 182.54 28.42 164.48 10.33 146.42 28.42"/></g><text class="cls-3" transform="translate(113.18 68.59)"></text></g></g></svg>